# xmcd
#
# Track frame offsets: 
#        150
#        11531
#        24798
#        37814
#        51281
#        62698
#        74699
#        87831
#        102300
#        115194
#        130188
#        142387
#        154569
#        168424
#        181933
#        195963
#        206300
#        218726
#        231393
#        243888
#        258193
#        269199
#        282302
#        294010
#        306391
#
# Disc length: 4206 seconds
#
# Revision: 1
# Processed by: cddbd v1.5.2PL0 Copyright (c) Steve Scherf et al.
# Submitted via: ExactAudioCopy v1.0b1
#
DISCID=64106c19
DTITLE=Arthur 'Big Boy' Crudup - My Baby Left Me CD2
DYEAR=2011
DGENRE=Blues
TTITLE0=Mean Old Santa Fe
TTITLE1=She's Just Like Caldonia
TTITLE2=She Ain't Nothing But Trouble
TTITLE3=Anytime Is The Right Time
TTITLE4=My Baby Left Me
TTITLE5=Star Bootlegger
TTITLE6=Too Much Competition
TTITLE7=Love Me Mama
TTITLE8=Where Did You Stay Last Night
TTITLE9=I'm Gonna Dig Myself A Hole
TTITLE10=Goin' Back To Georgia
TTITLE11=Mr. So And So
TTITLE12=Late In The Evening
TTITLE13=Nelvina
TTITLE14=My Baby Boogies All The Time
TTITLE15=I Wonder
TTITLE16=Open Your Book (Daddy Wants To Read With You)
TTITLE17=Tears In My Eyes
TTITLE18=Gonna Find My Baby
TTITLE19=Make A Little Love (With Me)
TTITLE20=My Wife And Woman
TTITLE21=The War Is Over
TTITLE22=If You Ever Been To Georgia
TTITLE23=Help Me To Bear This Heavy Load
TTITLE24=She's Got No Hair
EXTD=YEAR: 2011
EXTT0=
EXTT1=
EXTT2=
EXTT3=
EXTT4=
EXTT5=
EXTT6=
EXTT7=
EXTT8=
EXTT9=
EXTT10=
EXTT11=
EXTT12=
EXTT13=
EXTT14=
EXTT15=
EXTT16=
EXTT17=
EXTT18=
EXTT19=
EXTT20=
EXTT21=
EXTT22=
EXTT23=
EXTT24=
PLAYORDER=
